<?xml version="1.0" encoding="iso-8859-1"?>
<!-- Uploaded to: SVG Repo, www.svgrepo.com, Generator: SVG Repo Mixer Tools -->
<svg fill="#000000" height="800px" width="800px" version="1.1" id="Layer_1" xmlns="http://www.w3.org/2000/svg" xmlns:xlink="http://www.w3.org/1999/xlink" 
	 viewBox="0 0 512 512" xml:space="preserve">
<g>
	<g>
		<path d="M480.88,63.139c-78.226-1.148-132.566,35.409-164.35,66.281c-20.889,20.291-34.881,40.545-42.787,53.611
			c-2.432-2.429-5.36-4.357-8.614-5.632c1.902-6.666,6.309-16.435,13.648-27.853c10.125-15.748,22.144-28.923,32.977-36.145
			c3.684-2.455,4.68-7.433,2.223-11.116c-2.455-3.683-7.433-4.679-11.116-2.223c-18.533,12.354-36.777,36.54-46.86,57.235
			c-10.082-20.695-28.328-44.881-46.86-57.235c-3.683-2.455-8.661-1.461-11.117,2.223c-2.456,3.683-1.461,8.661,2.223,11.117
			c20.726,13.818,41.748,46.744,46.664,63.983c-3.27,1.274-6.212,3.208-8.653,5.647c-7.906-13.066-21.897-33.322-42.787-53.611
			C163.686,98.548,109.387,61.989,31.12,63.139C13.907,63.391-0.052,77.531,0,94.659c0.099,32.097,3.664,91.793,26.425,130.988
			c9.286,15.989,26.479,25.922,44.869,25.922h19.354c-16.063,16.909-39.342,46.721-39.342,77.495
			c0,12.569,5.517,27.745,15.951,43.887c9.526,14.734,22.879,29.715,37.599,42.185c25.753,21.816,52.397,33.754,74.689,33.754
			c3.216,0,6.343-0.249,9.362-0.753c20.506-3.417,39.413-27.586,56.197-71.834c0.998-2.632,1.955-5.25,2.877-7.846v3.363
			c0,4.427,3.589,8.017,8.017,8.017s8.017-3.589,8.017-8.017v-3.363c0.922,2.595,1.879,5.215,2.877,7.846
			c16.785,44.248,35.691,68.417,56.197,71.834c3.021,0.503,6.144,0.753,9.362,0.753c22.291-0.001,48.938-11.938,74.689-33.754
			c14.72-12.471,28.073-27.452,37.599-42.185c10.436-16.142,15.951-31.318,15.951-43.887c0-30.772-23.278-60.585-39.342-77.495
			h19.354c18.39,0,35.583-9.932,44.869-25.922c22.761-39.194,26.326-98.891,26.425-130.988
			C512.053,77.531,498.093,63.391,480.88,63.139z M390.312,97.647c27.923-12.731,58.312-18.938,90.334-18.477
			c6.897,0.102,12.731,4.707,14.651,10.941c-19.314,0.197-74.041,3.086-128.401,27.486c-1.636-1.412-3.35-2.789-5.147-4.125
			C370.953,107.412,380.49,102.125,390.312,97.647z M328.119,140.516c6.365-6.154,12.972-11.863,19.785-17.133
			c26.576,17.092,34.014,45.884,36.092,60.224c-23.902-8.478-49.971-16.792-74.679-22.787
			C314.78,154.242,321.04,147.36,328.119,140.516z M256,191.709c5.01,0,9.086,4.076,9.086,9.086s-4.076,9.086-9.086,9.086
			s-9.086-4.076-9.086-9.086S250.99,191.709,256,191.709z M164.096,123.383c6.814,5.271,13.42,10.98,19.785,17.133
			c7.079,6.844,13.34,13.726,18.802,20.304c-24.71,5.994-50.778,14.308-74.679,22.787
			C130.081,169.266,137.52,140.475,164.096,123.383z M31.355,79.17c32.017-0.456,62.411,5.746,90.336,18.477
			c9.822,4.478,19.359,9.764,28.562,15.825c-1.798,1.335-3.511,2.712-5.147,4.125C90.746,93.197,36.018,90.306,16.704,90.11
			C18.625,83.878,24.459,79.271,31.355,79.17z M16.218,106.164c17.056,0.208,67.194,2.747,117.071,23.776
			c-1.162,1.47-2.265,2.954-3.308,4.449c-4.711-1.364-14.952-4.074-29.987-6.674c-18.163-3.141-47.024-6.701-83.08-6.279
			C16.573,116.05,16.354,110.93,16.218,106.164z M18.244,137.456c52.359-0.483,89.427,7.623,103.448,11.295
			c-0.596,1.266-1.16,2.526-1.692,3.779c-45.919-4.783-88.721-1.456-99.919-0.418C19.352,147.165,18.742,142.256,18.244,137.456z
			 M22.85,167.969c12.028-1.037,50.777-3.743,91.861,0.145c-0.232,0.89-0.45,1.767-0.653,2.625
			c-44.544,4.242-76.51,11.719-87.031,14.404C25.417,179.519,24.033,173.763,22.85,167.969z M40.291,217.594
			c-3.093-5.327-5.792-11.113-8.16-17.191c10.68-2.657,39.767-9.264,79.293-13.291c-0.082,0.991-0.139,1.861-0.177,2.587
			c-35.279,13.127-63.233,25.388-70.498,28.625C40.598,218.079,40.436,217.843,40.291,217.594z M71.294,235.534
			c-6.522,0-12.823-1.826-18.286-5.09c23.463-10.227,97.881-41.545,160.472-55.688c9.909,13.715,15.651,24.465,17.492,28.096
			c0.472,5.79,2.912,11.029,6.654,15.046c-4.18,4.488-6.745,10.5-6.745,17.102v0.534H110.6c-0.008,0-0.015,0-0.022,0H71.294z
			 M67.34,329.063c0-12.025,4.688-24.249,11.146-35.385c2.042,14.274,5.736,34.494,12.219,55.787
			c6.075,19.95,13.381,37.01,21.878,51.157C86.211,377.423,67.34,347.728,67.34,329.063z M247.983,311.077
			c-1.122,4.973-7.441,32.047-17.869,59.537c-19.165,50.526-35.695,60.348-43.842,61.705c-4.407,0.735-9.222,0.699-14.334-0.045
			c-0.188-0.077-0.377-0.154-0.574-0.217c-35.432-11.39-55.034-53.593-65.239-86.992c-9.964-32.611-13.138-63.472-13.806-71.12
			c8.791-10.753,17.442-18.894,21.323-22.378h117.237v17.637c0,11.048,7.172,20.446,17.102,23.8V311.077z M256,278.29
			c-5.01,0-9.086-4.076-9.086-9.086V235c0-5.01,4.076-9.086,9.086-9.086s9.086,4.076,9.086,9.086v34.205
			C265.086,274.215,261.01,278.29,256,278.29z M340.635,432.058c-0.195,0.062-0.379,0.139-0.565,0.214
			c-5.114,0.745-9.933,0.782-14.341,0.048c-8.134-1.356-24.639-11.155-43.782-61.547c-10.445-27.498-16.801-54.706-17.929-59.696
			v-18.074c9.93-3.354,17.102-12.752,17.102-23.8v-17.637h117.237c3.88,3.487,12.532,11.628,21.323,22.38
			c-0.662,7.613-3.802,38.262-13.724,70.846C387.471,405.506,360.231,425.759,340.635,432.058z M433.514,293.678
			c6.458,11.136,11.145,23.36,11.145,35.385c0,18.665-18.869,48.36-45.243,71.559c8.496-14.147,15.802-31.208,21.878-51.157
			C427.778,328.173,431.473,307.953,433.514,293.678z M440.707,235.533H281.119V235c0-6.603-2.564-12.614-6.745-17.102
			c3.741-4.017,6.181-9.256,6.654-15.046c1.842-3.631,7.584-14.381,17.492-28.096c62.561,14.137,137.002,45.46,160.472,55.688
			C453.53,233.709,447.229,235.533,440.707,235.533z M471.709,217.593c-0.144,0.249-0.307,0.485-0.458,0.73
			c-7.266-3.236-35.22-15.497-70.498-28.625c-0.039-0.726-0.095-1.596-0.177-2.587c39.452,4.02,68.593,10.633,79.292,13.292
			C477.502,206.481,474.803,212.267,471.709,217.593z M484.974,185.145c-10.522-2.685-42.489-10.162-87.031-14.404
			c-0.202-0.858-0.421-1.735-0.653-2.625c41.084-3.889,79.832-1.182,91.861-0.145C487.967,173.764,486.583,179.519,484.974,185.145z
			 M491.92,152.112c-11.198-1.039-53.999-4.366-99.919,0.418c-0.532-1.255-1.097-2.517-1.695-3.785
			c13.985-3.675,50.941-11.773,103.451-11.289C493.258,142.256,492.648,147.165,491.92,152.112z M495.086,121.438
			c-36.056-0.418-64.917,3.135-83.08,6.278c-15.035,2.602-25.275,5.31-29.987,6.674c-1.043-1.494-2.146-2.979-3.307-4.449
			c49.779-20.981,99.991-23.549,117.07-23.771C495.646,110.935,495.427,116.053,495.086,121.438z"/>
	</g>
</g>
</svg>