<?xml version="1.0" encoding="iso-8859-1"?>
<!-- Uploaded to: SVG Repo, www.svgrepo.com, Generator: SVG Repo Mixer Tools -->
<!DOCTYPE svg PUBLIC "-//W3C//DTD SVG 1.1//EN" "http://www.w3.org/Graphics/SVG/1.1/DTD/svg11.dtd">
<svg fill="#000000" height="800px" width="800px" version="1.1" id="Capa_1" xmlns="http://www.w3.org/2000/svg" xmlns:xlink="http://www.w3.org/1999/xlink" 
	 viewBox="0 0 445.953 445.953" xml:space="preserve">
<g>
	<path d="M180.974,192.274l21.378,37.03c0.893,1.547,2.544,2.5,4.33,2.5c1.786,0,3.437-0.953,4.33-2.5l21.379-37.03
		c7.85,8.065,18.81,13.089,30.927,13.089c23.811,0,43.183-19.371,43.183-43.182c0-23.811-19.372-43.184-43.183-43.184
		c-23.811,0-43.182,19.372-43.182,43.184c0,7.84,2.111,15.192,5.778,21.537H187.45c3.668-6.345,5.779-13.697,5.779-21.537
		c0-23.811-19.372-43.184-43.183-43.184c-23.811,0-43.183,19.372-43.183,43.184c0,23.811,19.372,43.182,43.183,43.182
		C162.163,205.363,173.124,200.339,180.974,192.274z M263.318,128.998c18.297,0,33.183,14.886,33.183,33.184
		c0,18.297-14.886,33.182-33.183,33.182c-18.297,0-33.182-14.885-33.182-33.182C230.136,143.883,245.022,128.998,263.318,128.998z
		 M220.011,193.718l-13.329,23.086l-13.328-23.086H220.011z M116.863,162.181c0-18.298,14.886-33.184,33.183-33.184
		c18.297,0,33.183,14.886,33.183,33.184c0,18.297-14.886,33.182-33.183,33.182C131.749,195.363,116.863,180.478,116.863,162.181z"/>
	<path d="M167.224,162.181c0-9.472-7.706-17.178-17.178-17.178c-9.472,0-17.177,7.706-17.177,17.178
		c0,9.471,7.706,17.176,17.177,17.176C159.518,179.357,167.224,171.652,167.224,162.181z M142.869,162.181
		c0-3.958,3.22-7.178,7.177-7.178c3.958,0,7.178,3.22,7.178,7.178c0,3.957-3.22,7.176-7.178,7.176
		C146.088,169.357,142.869,166.138,142.869,162.181z"/>
	<path d="M263.318,179.357c9.472,0,17.178-7.705,17.178-17.176c0-9.472-7.706-17.178-17.178-17.178
		c-9.472,0-17.177,7.706-17.177,17.178C246.141,171.652,253.847,179.357,263.318,179.357z M263.318,155.003
		c3.958,0,7.178,3.22,7.178,7.178c0,3.957-3.22,7.176-7.178,7.176c-3.958,0-7.177-3.219-7.177-7.176
		C256.141,158.223,259.361,155.003,263.318,155.003z"/>
	<path d="M233.276,318.398c15.838,0,28.988-11.717,31.245-26.938c15.221-2.258,26.938-15.406,26.938-31.244c0-2.762-2.239-5-5-5
		c-2.761,0-5,2.238-5,5c0,11.904-9.687,21.59-21.594,21.59c-11.905,0-21.591-9.685-21.591-21.59c0-2.762-2.239-5-5-5
		c-2.761,0-5,2.238-5,5c0,11.904-9.687,21.59-21.594,21.59c-11.905,0-21.591-9.685-21.591-21.59c0-2.762-2.239-5-5-5s-5,2.238-5,5
		c0,11.904-9.687,21.59-21.594,21.59c-11.905,0-21.591-9.685-21.591-21.59c0-2.762-2.239-5-5-5c-2.761,0-5,2.238-5,5
		c0,15.838,11.717,28.988,26.938,31.244c2.258,15.221,15.408,26.938,31.247,26.938c11.154,0,20.97-5.815,26.593-14.568
		C212.306,312.583,222.122,318.398,233.276,318.398z M233.275,277.239c4.68,7.284,12.265,12.526,21.109,14.081
		c-2.082,9.745-10.751,17.078-21.108,17.078c-10.358,0-19.028-7.334-21.11-17.078C221.01,289.765,228.595,284.523,233.275,277.239z
		 M180.09,308.398c-10.357,0-19.027-7.334-21.109-17.078c8.844-1.555,16.429-6.797,21.109-14.081
		c4.68,7.284,12.265,12.527,21.11,14.081C199.117,301.065,190.447,308.398,180.09,308.398z"/>
	<path d="M445.642,314.601c-0.726-1.962-2.597-3.264-4.689-3.264h-46.39c-1.095,0-2.159,0.359-3.03,1.022L333.2,356.804h-70.361
		c21.978-9.404,38.27-25.553,49.275-49.021c11.554-1.488,24.572-10.735,35.474-25.415c12.407-16.705,20.136-37.986,21.207-58.387
		c1.178-22.444-2.813-38.164-12.201-48.058c-6.486-6.836-15.274-10.59-26.763-11.411V20.822c0-2.135-1.356-4.035-3.376-4.729
		c-2.019-0.695-4.257-0.028-5.569,1.655l-45.67,58.616H138.15L92.479,17.749c-1.313-1.684-3.551-2.351-5.569-1.655
		c-2.02,0.693-3.376,2.594-3.376,4.729v143.691c-11.488,0.821-20.276,4.575-26.762,11.41c-9.389,9.895-13.38,25.614-12.203,48.059
		c1.071,20.404,8.787,41.685,21.167,58.384c10.857,14.645,23.825,23.878,35.354,25.399c3.764,8.093,8.137,15.297,13.137,21.628
		c9.559,12.103,21.516,21.208,36.045,27.411H28.396c-1.564,0-3.039,0.732-3.984,1.978L1.016,389.634
		c-1.148,1.513-1.339,3.545-0.494,5.246c0.845,1.7,2.58,2.775,4.478,2.775h348.586l42.04,31.479
		c0.874,0.654,1.927,0.998,2.997,0.998c0.384,0,0.77-0.044,1.151-0.134c1.442-0.342,2.659-1.305,3.321-2.63l16.237-32.477
		c1.08-2.16,0.462-4.782-1.468-6.233l-28.51-21.43l54.855-47.098C445.797,318.768,446.368,316.562,445.642,314.601z
		 M122.076,323.195c-19.204-24.314-28.539-63.178-28.539-118.813c0-2.762-2.239-5-5-5s-5,2.238-5,5
		c0,37.548,4.218,67.922,12.797,91.773c-17.712-7.532-39.915-37.225-41.777-72.697c-1.012-19.286,2.174-32.963,9.47-40.651
		c5.407-5.698,13.424-8.468,24.51-8.468c2.761,0,5-2.238,5-5c0-0.007-0.002-0.013-0.002-0.02V35.374l38.229,49.065
		c0.948,1.216,2.403,1.927,3.944,1.927h141.952c1.542,0,2.996-0.711,3.944-1.927l38.228-49.064v133.96c0,0.002,0,0.003,0,0.005
		c0,2.762,2.239,5,5,5c11.085,0,19.102,2.77,24.509,8.468c7.296,7.688,10.481,21.365,9.469,40.651
		c-1.864,35.516-24.148,65.231-41.897,72.715c8.72-24.027,12.917-54.471,12.917-91.791c0-2.762-2.239-5-5-5s-5,2.238-5,5
		c0,105.877-33.232,151.596-110.996,152.422h-4.439C166.047,356.396,139.845,345.692,122.076,323.195z M15.067,387.656
		l15.812-20.852h130.852v11.299c0,3.47,0.918,6.725,2.51,9.553H15.067z M190.841,378.103c0,5.268-4.286,9.553-9.555,9.553
		c-5.269,0-9.555-4.285-9.555-9.553v-11.299h19.109V378.103z M198.331,387.656c1.592-2.828,2.51-6.083,2.51-9.553v-11.299h11.684
		v11.299c0,3.47,0.918,6.725,2.51,9.553H198.331z M241.633,378.103c0,5.268-4.287,9.553-9.556,9.553
		c-5.268,0-9.553-4.285-9.553-9.553v-11.299h19.108V378.103z M378.121,363.694c-1.149,0.987-1.789,2.442-1.74,3.956
		c0.049,1.515,0.782,2.925,1.993,3.835l30.151,22.663l-11.696,23.394l-38.581-28.888c-0.865-0.648-1.917-0.998-2.997-0.998H249.124
		c1.591-2.828,2.51-6.083,2.51-9.553v-11.299h83.254c1.095,0,2.159-0.359,3.03-1.022l58.334-44.444h31.203L378.121,363.694z"/>
</g>
</svg>